<mxfile host="app.diagrams.net" modified="2023-12-30T20:29:09.355Z" agent="Mozilla/5.0 (X11; Ubuntu; Linux x86_64; rv:109.0) Gecko/20100101 Firefox/119.0" etag="2EUeFGp9eBD_NBhGN0It" version="22.1.16" type="github">
  <diagram name="Página-1" id="wgfPbsO5Gfq7p3gzaKeK">
    <mxGraphModel dx="1687" dy="935" grid="1" gridSize="10" guides="1" tooltips="1" connect="1" arrows="1" fold="1" page="1" pageScale="1" pageWidth="827" pageHeight="1169" math="0" shadow="0">
      <root>
        <mxCell id="0" />
        <mxCell id="1" parent="0" />
        <mxCell id="2Qgy9F7TIL9ksxY2jGvX-3" value="" style="edgeStyle=orthogonalEdgeStyle;rounded=0;orthogonalLoop=1;jettySize=auto;html=1;" edge="1" parent="1" source="2Qgy9F7TIL9ksxY2jGvX-1" target="2Qgy9F7TIL9ksxY2jGvX-2">
          <mxGeometry relative="1" as="geometry" />
        </mxCell>
        <mxCell id="2Qgy9F7TIL9ksxY2jGvX-1" value="&lt;div&gt;Criação/edição&lt;/div&gt;&lt;div&gt;de personagens&lt;/div&gt;" style="shape=note2;boundedLbl=1;whiteSpace=wrap;html=1;size=25;verticalAlign=top;align=center;" vertex="1" parent="1">
          <mxGeometry x="85" y="40" width="120" height="60" as="geometry" />
        </mxCell>
        <mxCell id="2Qgy9F7TIL9ksxY2jGvX-7" value="" style="edgeStyle=orthogonalEdgeStyle;rounded=0;orthogonalLoop=1;jettySize=auto;html=1;" edge="1" parent="1" source="2Qgy9F7TIL9ksxY2jGvX-2" target="2Qgy9F7TIL9ksxY2jGvX-6">
          <mxGeometry relative="1" as="geometry" />
        </mxCell>
        <mxCell id="2Qgy9F7TIL9ksxY2jGvX-2" value="" style="ellipse;" vertex="1" parent="1">
          <mxGeometry x="255" y="55" width="30" height="30" as="geometry" />
        </mxCell>
        <mxCell id="2Qgy9F7TIL9ksxY2jGvX-9" value="" style="edgeStyle=orthogonalEdgeStyle;rounded=0;orthogonalLoop=1;jettySize=auto;html=1;" edge="1" parent="1" source="2Qgy9F7TIL9ksxY2jGvX-6" target="2Qgy9F7TIL9ksxY2jGvX-8">
          <mxGeometry relative="1" as="geometry" />
        </mxCell>
        <mxCell id="yHduHDPm0oGMUBSL0AVT-134" value="" style="edgeStyle=orthogonalEdgeStyle;rounded=0;orthogonalLoop=1;jettySize=auto;html=1;" edge="1" parent="1" source="2Qgy9F7TIL9ksxY2jGvX-6" target="yHduHDPm0oGMUBSL0AVT-133">
          <mxGeometry relative="1" as="geometry" />
        </mxCell>
        <mxCell id="2Qgy9F7TIL9ksxY2jGvX-6" value="Há ID" style="rhombus;whiteSpace=wrap;html=1;" vertex="1" parent="1">
          <mxGeometry x="230" y="140" width="80" height="80" as="geometry" />
        </mxCell>
        <mxCell id="yHduHDPm0oGMUBSL0AVT-13" style="edgeStyle=orthogonalEdgeStyle;rounded=0;orthogonalLoop=1;jettySize=auto;html=1;exitX=0.5;exitY=1;exitDx=0;exitDy=0;entryX=0;entryY=0.5;entryDx=0;entryDy=0;" edge="1" parent="1" source="2Qgy9F7TIL9ksxY2jGvX-8" target="yHduHDPm0oGMUBSL0AVT-12">
          <mxGeometry relative="1" as="geometry" />
        </mxCell>
        <mxCell id="2Qgy9F7TIL9ksxY2jGvX-8" value="Carrega dados do personagem" style="whiteSpace=wrap;html=1;" vertex="1" parent="1">
          <mxGeometry x="100" y="240" width="120" height="60" as="geometry" />
        </mxCell>
        <mxCell id="2Qgy9F7TIL9ksxY2jGvX-18" value="" style="edgeStyle=orthogonalEdgeStyle;rounded=0;orthogonalLoop=1;jettySize=auto;html=1;" edge="1" parent="1" source="2Qgy9F7TIL9ksxY2jGvX-14" target="2Qgy9F7TIL9ksxY2jGvX-17">
          <mxGeometry relative="1" as="geometry" />
        </mxCell>
        <mxCell id="2Qgy9F7TIL9ksxY2jGvX-14" value="Abre pagina completa de dados do personagem" style="rounded=0;whiteSpace=wrap;html=1;" vertex="1" parent="1">
          <mxGeometry x="650" y="460" width="120" height="60" as="geometry" />
        </mxCell>
        <mxCell id="2Qgy9F7TIL9ksxY2jGvX-35" value="" style="edgeStyle=orthogonalEdgeStyle;rounded=0;orthogonalLoop=1;jettySize=auto;html=1;" edge="1" parent="1" source="2Qgy9F7TIL9ksxY2jGvX-17" target="2Qgy9F7TIL9ksxY2jGvX-34">
          <mxGeometry relative="1" as="geometry" />
        </mxCell>
        <mxCell id="2Qgy9F7TIL9ksxY2jGvX-17" value="Dados preenchidos" style="shape=document;whiteSpace=wrap;html=1;boundedLbl=1;" vertex="1" parent="1">
          <mxGeometry x="650" y="640" width="120" height="80" as="geometry" />
        </mxCell>
        <mxCell id="2Qgy9F7TIL9ksxY2jGvX-34" value="&lt;blockquote&gt;&lt;blockquote&gt;&lt;p&gt;Dados são divididos entre dados intrissecos e dados de progressão. Ao criar dados para um nível novo, deve ser criada uma nova entrada na tabela de progressão.&lt;/p&gt;&lt;/blockquote&gt;&lt;/blockquote&gt;" style="ellipse;shape=cloud;whiteSpace=wrap;html=1;align=center;" vertex="1" parent="1">
          <mxGeometry x="860" y="565" width="290" height="230" as="geometry" />
        </mxCell>
        <mxCell id="2Qgy9F7TIL9ksxY2jGvX-50" value="" style="edgeStyle=orthogonalEdgeStyle;rounded=0;orthogonalLoop=1;jettySize=auto;html=1;entryX=0.5;entryY=0;entryDx=0;entryDy=0;" edge="1" parent="1" source="2Qgy9F7TIL9ksxY2jGvX-17" target="yHduHDPm0oGMUBSL0AVT-125">
          <mxGeometry relative="1" as="geometry">
            <mxPoint x="710" y="740" as="sourcePoint" />
            <mxPoint x="710" y="810" as="targetPoint" />
          </mxGeometry>
        </mxCell>
        <mxCell id="yHduHDPm0oGMUBSL0AVT-139" style="edgeStyle=orthogonalEdgeStyle;rounded=0;orthogonalLoop=1;jettySize=auto;html=1;entryX=0.5;entryY=0;entryDx=0;entryDy=0;" edge="1" parent="1" source="yHduHDPm0oGMUBSL0AVT-12" target="2Qgy9F7TIL9ksxY2jGvX-14">
          <mxGeometry relative="1" as="geometry" />
        </mxCell>
        <mxCell id="yHduHDPm0oGMUBSL0AVT-12" value="" style="rhombus;whiteSpace=wrap;html=1;" vertex="1" parent="1">
          <mxGeometry x="670" y="320" width="80" height="80" as="geometry" />
        </mxCell>
        <mxCell id="yHduHDPm0oGMUBSL0AVT-88" value="" style="edgeStyle=orthogonalEdgeStyle;rounded=0;orthogonalLoop=1;jettySize=auto;html=1;" edge="1" parent="1" source="yHduHDPm0oGMUBSL0AVT-110" target="yHduHDPm0oGMUBSL0AVT-91">
          <mxGeometry relative="1" as="geometry" />
        </mxCell>
        <mxCell id="yHduHDPm0oGMUBSL0AVT-89" value="" style="edgeStyle=orthogonalEdgeStyle;rounded=0;orthogonalLoop=1;jettySize=auto;html=1;" edge="1" parent="1" source="yHduHDPm0oGMUBSL0AVT-107" target="yHduHDPm0oGMUBSL0AVT-94">
          <mxGeometry relative="1" as="geometry" />
        </mxCell>
        <mxCell id="yHduHDPm0oGMUBSL0AVT-90" value="" style="edgeStyle=orthogonalEdgeStyle;rounded=0;orthogonalLoop=1;jettySize=auto;html=1;entryX=0.5;entryY=0;entryDx=0;entryDy=0;" edge="1" parent="1" source="yHduHDPm0oGMUBSL0AVT-91" target="yHduHDPm0oGMUBSL0AVT-105">
          <mxGeometry relative="1" as="geometry">
            <mxPoint x="1280" y="1011" as="targetPoint" />
          </mxGeometry>
        </mxCell>
        <mxCell id="yHduHDPm0oGMUBSL0AVT-91" value="Novo nível" style="rhombus;whiteSpace=wrap;html=1;" vertex="1" parent="1">
          <mxGeometry x="1080" y="971" width="80" height="80" as="geometry" />
        </mxCell>
        <mxCell id="yHduHDPm0oGMUBSL0AVT-92" value="" style="edgeStyle=orthogonalEdgeStyle;rounded=0;orthogonalLoop=1;jettySize=auto;html=1;" edge="1" parent="1" source="yHduHDPm0oGMUBSL0AVT-109" target="yHduHDPm0oGMUBSL0AVT-97">
          <mxGeometry relative="1" as="geometry" />
        </mxCell>
        <mxCell id="yHduHDPm0oGMUBSL0AVT-93" value="" style="edgeStyle=orthogonalEdgeStyle;rounded=0;orthogonalLoop=1;jettySize=auto;html=1;entryX=0.5;entryY=0;entryDx=0;entryDy=0;" edge="1" parent="1" source="yHduHDPm0oGMUBSL0AVT-94" target="yHduHDPm0oGMUBSL0AVT-101">
          <mxGeometry relative="1" as="geometry" />
        </mxCell>
        <mxCell id="yHduHDPm0oGMUBSL0AVT-94" value="&lt;div style=&quot;font-size: 10px;&quot;&gt;Adicionou equipamento&lt;/div&gt;" style="rhombus;whiteSpace=wrap;html=1;fontSize=10;" vertex="1" parent="1">
          <mxGeometry x="1080" y="1251" width="80" height="80" as="geometry" />
        </mxCell>
        <mxCell id="yHduHDPm0oGMUBSL0AVT-95" value="" style="edgeStyle=orthogonalEdgeStyle;rounded=0;orthogonalLoop=1;jettySize=auto;html=1;entryX=0.5;entryY=0;entryDx=0;entryDy=0;" edge="1" parent="1" source="yHduHDPm0oGMUBSL0AVT-97" target="yHduHDPm0oGMUBSL0AVT-103">
          <mxGeometry relative="1" as="geometry" />
        </mxCell>
        <mxCell id="yHduHDPm0oGMUBSL0AVT-96" value="" style="edgeStyle=orthogonalEdgeStyle;rounded=0;orthogonalLoop=1;jettySize=auto;html=1;" edge="1" parent="1" source="yHduHDPm0oGMUBSL0AVT-97" target="yHduHDPm0oGMUBSL0AVT-112">
          <mxGeometry relative="1" as="geometry" />
        </mxCell>
        <mxCell id="yHduHDPm0oGMUBSL0AVT-97" value="Adicionou talento" style="rhombus;whiteSpace=wrap;html=1;fontSize=12;" vertex="1" parent="1">
          <mxGeometry x="1080" y="1530" width="80" height="80" as="geometry" />
        </mxCell>
        <mxCell id="yHduHDPm0oGMUBSL0AVT-100" style="edgeStyle=orthogonalEdgeStyle;rounded=0;orthogonalLoop=1;jettySize=auto;html=1;exitX=0.5;exitY=1;exitDx=0;exitDy=0;entryX=1;entryY=0.5;entryDx=0;entryDy=0;" edge="1" parent="1" source="yHduHDPm0oGMUBSL0AVT-101" target="yHduHDPm0oGMUBSL0AVT-109">
          <mxGeometry relative="1" as="geometry" />
        </mxCell>
        <mxCell id="yHduHDPm0oGMUBSL0AVT-101" value="Adiciona no array de equipamentos a serem adicionados" style="whiteSpace=wrap;html=1;fontSize=12;" vertex="1" parent="1">
          <mxGeometry x="1280" y="1331" width="120" height="60" as="geometry" />
        </mxCell>
        <mxCell id="yHduHDPm0oGMUBSL0AVT-102" style="edgeStyle=orthogonalEdgeStyle;rounded=0;orthogonalLoop=1;jettySize=auto;html=1;entryX=1;entryY=0.5;entryDx=0;entryDy=0;exitX=0.5;exitY=1;exitDx=0;exitDy=0;" edge="1" parent="1" source="yHduHDPm0oGMUBSL0AVT-103" target="yHduHDPm0oGMUBSL0AVT-112">
          <mxGeometry relative="1" as="geometry">
            <mxPoint x="1380" y="1711" as="sourcePoint" />
            <Array as="points">
              <mxPoint x="1340" y="1711" />
            </Array>
          </mxGeometry>
        </mxCell>
        <mxCell id="yHduHDPm0oGMUBSL0AVT-103" value="Adiciona no array de talentos a serem adicionados" style="whiteSpace=wrap;html=1;" vertex="1" parent="1">
          <mxGeometry x="1280" y="1611" width="120" height="60" as="geometry" />
        </mxCell>
        <mxCell id="yHduHDPm0oGMUBSL0AVT-104" style="edgeStyle=orthogonalEdgeStyle;rounded=0;orthogonalLoop=1;jettySize=auto;html=1;entryX=1;entryY=0.5;entryDx=0;entryDy=0;exitX=0.5;exitY=1;exitDx=0;exitDy=0;" edge="1" parent="1" source="yHduHDPm0oGMUBSL0AVT-105" target="yHduHDPm0oGMUBSL0AVT-107">
          <mxGeometry relative="1" as="geometry">
            <Array as="points">
              <mxPoint x="1340" y="1140" />
              <mxPoint x="1220" y="1140" />
              <mxPoint x="1220" y="1141" />
            </Array>
          </mxGeometry>
        </mxCell>
        <mxCell id="yHduHDPm0oGMUBSL0AVT-105" value="Copia dados da progressão anterior" style="whiteSpace=wrap;html=1;" vertex="1" parent="1">
          <mxGeometry x="1280" y="1051" width="120" height="60" as="geometry" />
        </mxCell>
        <mxCell id="yHduHDPm0oGMUBSL0AVT-106" value="" style="edgeStyle=orthogonalEdgeStyle;rounded=0;orthogonalLoop=1;jettySize=auto;html=1;" edge="1" parent="1" source="yHduHDPm0oGMUBSL0AVT-91" target="yHduHDPm0oGMUBSL0AVT-107">
          <mxGeometry relative="1" as="geometry">
            <mxPoint x="1120" y="1051" as="sourcePoint" />
            <mxPoint x="1120" y="1361" as="targetPoint" />
          </mxGeometry>
        </mxCell>
        <mxCell id="yHduHDPm0oGMUBSL0AVT-107" value="" style="rhombus;whiteSpace=wrap;html=1;" vertex="1" parent="1">
          <mxGeometry x="1080" y="1101" width="80" height="80" as="geometry" />
        </mxCell>
        <mxCell id="yHduHDPm0oGMUBSL0AVT-108" value="" style="edgeStyle=orthogonalEdgeStyle;rounded=0;orthogonalLoop=1;jettySize=auto;html=1;" edge="1" parent="1" source="yHduHDPm0oGMUBSL0AVT-94" target="yHduHDPm0oGMUBSL0AVT-109">
          <mxGeometry relative="1" as="geometry">
            <mxPoint x="1120" y="1441" as="sourcePoint" />
            <mxPoint x="1120" y="1691" as="targetPoint" />
          </mxGeometry>
        </mxCell>
        <mxCell id="yHduHDPm0oGMUBSL0AVT-109" value="" style="rhombus;whiteSpace=wrap;html=1;" vertex="1" parent="1">
          <mxGeometry x="1080" y="1391" width="80" height="80" as="geometry" />
        </mxCell>
        <mxCell id="yHduHDPm0oGMUBSL0AVT-110" value="Seleciona nível a ser alterado" style="rounded=0;whiteSpace=wrap;html=1;" vertex="1" parent="1">
          <mxGeometry x="1060" y="839" width="120" height="60" as="geometry" />
        </mxCell>
        <mxCell id="yHduHDPm0oGMUBSL0AVT-189" value="" style="edgeStyle=orthogonalEdgeStyle;rounded=0;orthogonalLoop=1;jettySize=auto;html=1;" edge="1" parent="1" source="yHduHDPm0oGMUBSL0AVT-112" target="yHduHDPm0oGMUBSL0AVT-188">
          <mxGeometry relative="1" as="geometry" />
        </mxCell>
        <mxCell id="yHduHDPm0oGMUBSL0AVT-112" value="" style="rhombus;whiteSpace=wrap;html=1;" vertex="1" parent="1">
          <mxGeometry x="1080" y="1671" width="80" height="80" as="geometry" />
        </mxCell>
        <mxCell id="yHduHDPm0oGMUBSL0AVT-126" style="edgeStyle=orthogonalEdgeStyle;rounded=0;orthogonalLoop=1;jettySize=auto;html=1;exitX=1;exitY=0.5;exitDx=0;exitDy=0;entryX=0;entryY=0.5;entryDx=0;entryDy=0;" edge="1" parent="1" source="yHduHDPm0oGMUBSL0AVT-125" target="yHduHDPm0oGMUBSL0AVT-110">
          <mxGeometry relative="1" as="geometry">
            <mxPoint x="1160" y="869.3333333333333" as="targetPoint" />
          </mxGeometry>
        </mxCell>
        <mxCell id="yHduHDPm0oGMUBSL0AVT-128" value="" style="edgeStyle=orthogonalEdgeStyle;rounded=0;orthogonalLoop=1;jettySize=auto;html=1;" edge="1" parent="1" source="yHduHDPm0oGMUBSL0AVT-125" target="yHduHDPm0oGMUBSL0AVT-127">
          <mxGeometry relative="1" as="geometry" />
        </mxCell>
        <mxCell id="yHduHDPm0oGMUBSL0AVT-125" value="Edita progressão" style="rhombus;whiteSpace=wrap;html=1;" vertex="1" parent="1">
          <mxGeometry x="670" y="829" width="80" height="80" as="geometry" />
        </mxCell>
        <mxCell id="yHduHDPm0oGMUBSL0AVT-130" value="" style="edgeStyle=orthogonalEdgeStyle;rounded=0;orthogonalLoop=1;jettySize=auto;html=1;" edge="1" parent="1" source="yHduHDPm0oGMUBSL0AVT-127" target="yHduHDPm0oGMUBSL0AVT-129">
          <mxGeometry relative="1" as="geometry" />
        </mxCell>
        <mxCell id="yHduHDPm0oGMUBSL0AVT-132" value="" style="edgeStyle=orthogonalEdgeStyle;rounded=0;orthogonalLoop=1;jettySize=auto;html=1;" edge="1" parent="1" source="yHduHDPm0oGMUBSL0AVT-127" target="yHduHDPm0oGMUBSL0AVT-131">
          <mxGeometry relative="1" as="geometry" />
        </mxCell>
        <mxCell id="yHduHDPm0oGMUBSL0AVT-127" value="Salvar" style="rhombus;whiteSpace=wrap;html=1;" vertex="1" parent="1">
          <mxGeometry x="670" y="1181" width="80" height="80" as="geometry" />
        </mxCell>
        <mxCell id="yHduHDPm0oGMUBSL0AVT-129" value="Salva dados no DB" style="ellipse;whiteSpace=wrap;html=1;" vertex="1" parent="1">
          <mxGeometry x="510" y="1181" width="80" height="80" as="geometry" />
        </mxCell>
        <mxCell id="yHduHDPm0oGMUBSL0AVT-131" value="Cancela operação" style="ellipse;whiteSpace=wrap;html=1;" vertex="1" parent="1">
          <mxGeometry x="830" y="1181" width="80" height="80" as="geometry" />
        </mxCell>
        <mxCell id="yHduHDPm0oGMUBSL0AVT-141" value="" style="edgeStyle=orthogonalEdgeStyle;rounded=0;orthogonalLoop=1;jettySize=auto;html=1;" edge="1" parent="1" source="yHduHDPm0oGMUBSL0AVT-133" target="yHduHDPm0oGMUBSL0AVT-140">
          <mxGeometry relative="1" as="geometry" />
        </mxCell>
        <mxCell id="yHduHDPm0oGMUBSL0AVT-133" value="Abre modal para preencher apenas dados intrissecos do personagem" style="whiteSpace=wrap;html=1;" vertex="1" parent="1">
          <mxGeometry x="430" y="150" width="120" height="60" as="geometry" />
        </mxCell>
        <mxCell id="yHduHDPm0oGMUBSL0AVT-143" value="" style="edgeStyle=orthogonalEdgeStyle;rounded=0;orthogonalLoop=1;jettySize=auto;html=1;exitX=0.5;exitY=0;exitDx=0;exitDy=0;" edge="1" parent="1" source="yHduHDPm0oGMUBSL0AVT-140" target="yHduHDPm0oGMUBSL0AVT-142">
          <mxGeometry relative="1" as="geometry" />
        </mxCell>
        <mxCell id="yHduHDPm0oGMUBSL0AVT-151" value="" style="edgeStyle=orthogonalEdgeStyle;rounded=0;orthogonalLoop=1;jettySize=auto;html=1;entryX=0;entryY=0.5;entryDx=0;entryDy=0;" edge="1" parent="1" source="yHduHDPm0oGMUBSL0AVT-140" target="yHduHDPm0oGMUBSL0AVT-152">
          <mxGeometry relative="1" as="geometry">
            <mxPoint x="810" y="180" as="targetPoint" />
          </mxGeometry>
        </mxCell>
        <mxCell id="yHduHDPm0oGMUBSL0AVT-140" value="&lt;div&gt;Confirma&lt;/div&gt;" style="rhombus;whiteSpace=wrap;html=1;" vertex="1" parent="1">
          <mxGeometry x="670" y="140" width="80" height="80" as="geometry" />
        </mxCell>
        <mxCell id="yHduHDPm0oGMUBSL0AVT-142" value="Encerra criação" style="ellipse;whiteSpace=wrap;html=1;" vertex="1" parent="1">
          <mxGeometry x="670" y="10" width="80" height="80" as="geometry" />
        </mxCell>
        <mxCell id="yHduHDPm0oGMUBSL0AVT-146" value="NÃO" style="rounded=1;whiteSpace=wrap;html=1;fillColor=#ffcccc;strokeColor=#36393d;" vertex="1" parent="1">
          <mxGeometry x="650" y="100" width="40" height="30" as="geometry" />
        </mxCell>
        <mxCell id="yHduHDPm0oGMUBSL0AVT-147" value="&lt;div&gt;SIM&lt;/div&gt;" style="rounded=1;whiteSpace=wrap;html=1;fillColor=#cdeb8b;strokeColor=#36393d;" vertex="1" parent="1">
          <mxGeometry x="750" y="140" width="40" height="30" as="geometry" />
        </mxCell>
        <mxCell id="yHduHDPm0oGMUBSL0AVT-154" value="" style="edgeStyle=orthogonalEdgeStyle;rounded=0;orthogonalLoop=1;jettySize=auto;html=1;" edge="1" parent="1" source="yHduHDPm0oGMUBSL0AVT-152" target="yHduHDPm0oGMUBSL0AVT-153">
          <mxGeometry relative="1" as="geometry" />
        </mxCell>
        <mxCell id="yHduHDPm0oGMUBSL0AVT-152" value="API retornou sucesso" style="rhombus;whiteSpace=wrap;html=1;" vertex="1" parent="1">
          <mxGeometry x="810" y="140" width="80" height="80" as="geometry" />
        </mxCell>
        <mxCell id="yHduHDPm0oGMUBSL0AVT-156" value="" style="edgeStyle=orthogonalEdgeStyle;rounded=0;orthogonalLoop=1;jettySize=auto;html=1;" edge="1" parent="1" source="yHduHDPm0oGMUBSL0AVT-153" target="yHduHDPm0oGMUBSL0AVT-155">
          <mxGeometry relative="1" as="geometry" />
        </mxCell>
        <mxCell id="yHduHDPm0oGMUBSL0AVT-153" value="&lt;div&gt;Informa que houve sucesso e pergunta se deseja continuar edição do personagem&lt;/div&gt;" style="whiteSpace=wrap;html=1;" vertex="1" parent="1">
          <mxGeometry x="950" y="150" width="170" height="60" as="geometry" />
        </mxCell>
        <mxCell id="yHduHDPm0oGMUBSL0AVT-157" style="edgeStyle=orthogonalEdgeStyle;rounded=0;orthogonalLoop=1;jettySize=auto;html=1;entryX=1;entryY=0.5;entryDx=0;entryDy=0;" edge="1" parent="1" target="yHduHDPm0oGMUBSL0AVT-142">
          <mxGeometry relative="1" as="geometry">
            <mxPoint x="1280" y="50" as="sourcePoint" />
            <Array as="points">
              <mxPoint x="1280" y="140" />
              <mxPoint x="1280" y="50" />
            </Array>
          </mxGeometry>
        </mxCell>
        <mxCell id="yHduHDPm0oGMUBSL0AVT-160" style="edgeStyle=orthogonalEdgeStyle;rounded=0;orthogonalLoop=1;jettySize=auto;html=1;exitX=0.5;exitY=1;exitDx=0;exitDy=0;entryX=1;entryY=0.5;entryDx=0;entryDy=0;" edge="1" parent="1" source="yHduHDPm0oGMUBSL0AVT-155" target="yHduHDPm0oGMUBSL0AVT-12">
          <mxGeometry relative="1" as="geometry" />
        </mxCell>
        <mxCell id="yHduHDPm0oGMUBSL0AVT-155" value="Continuar" style="rhombus;whiteSpace=wrap;html=1;" vertex="1" parent="1">
          <mxGeometry x="1241" y="140" width="80" height="80" as="geometry" />
        </mxCell>
        <mxCell id="yHduHDPm0oGMUBSL0AVT-158" value="NÃO" style="rounded=1;whiteSpace=wrap;html=1;fillColor=#ffcccc;strokeColor=#36393d;" vertex="1" parent="1">
          <mxGeometry x="1230" y="110" width="40" height="30" as="geometry" />
        </mxCell>
        <mxCell id="yHduHDPm0oGMUBSL0AVT-159" value="&lt;div&gt;SIM&lt;/div&gt;" style="rounded=1;whiteSpace=wrap;html=1;fillColor=#cdeb8b;strokeColor=#36393d;" vertex="1" parent="1">
          <mxGeometry x="1230" y="223" width="40" height="30" as="geometry" />
        </mxCell>
        <mxCell id="yHduHDPm0oGMUBSL0AVT-161" value="&lt;div&gt;SIM&lt;/div&gt;" style="rounded=1;whiteSpace=wrap;html=1;fillColor=#cdeb8b;strokeColor=#36393d;" vertex="1" parent="1">
          <mxGeometry x="610" y="1171" width="40" height="30" as="geometry" />
        </mxCell>
        <mxCell id="yHduHDPm0oGMUBSL0AVT-162" value="NÃO" style="rounded=1;whiteSpace=wrap;html=1;fillColor=#ffcccc;strokeColor=#36393d;" vertex="1" parent="1">
          <mxGeometry x="760" y="1169" width="40" height="30" as="geometry" />
        </mxCell>
        <mxCell id="yHduHDPm0oGMUBSL0AVT-169" value="&lt;div&gt;SIM&lt;/div&gt;" style="rounded=1;whiteSpace=wrap;html=1;fillColor=#cdeb8b;strokeColor=#36393d;" vertex="1" parent="1">
          <mxGeometry x="1160" y="960" width="40" height="30" as="geometry" />
        </mxCell>
        <mxCell id="yHduHDPm0oGMUBSL0AVT-170" value="&lt;div&gt;SIM&lt;/div&gt;" style="rounded=1;whiteSpace=wrap;html=1;fillColor=#cdeb8b;strokeColor=#36393d;" vertex="1" parent="1">
          <mxGeometry x="1160" y="1251" width="40" height="30" as="geometry" />
        </mxCell>
        <mxCell id="yHduHDPm0oGMUBSL0AVT-171" value="&lt;div&gt;SIM&lt;/div&gt;" style="rounded=1;whiteSpace=wrap;html=1;fillColor=#cdeb8b;strokeColor=#36393d;" vertex="1" parent="1">
          <mxGeometry x="1160" y="1520" width="40" height="30" as="geometry" />
        </mxCell>
        <mxCell id="yHduHDPm0oGMUBSL0AVT-172" value="NÃO" style="rounded=1;whiteSpace=wrap;html=1;fillColor=#ffcccc;strokeColor=#36393d;" vertex="1" parent="1">
          <mxGeometry x="1130" y="1050" width="40" height="30" as="geometry" />
        </mxCell>
        <mxCell id="yHduHDPm0oGMUBSL0AVT-173" value="NÃO" style="rounded=1;whiteSpace=wrap;html=1;fillColor=#ffcccc;strokeColor=#36393d;" vertex="1" parent="1">
          <mxGeometry x="1130" y="1331" width="40" height="30" as="geometry" />
        </mxCell>
        <mxCell id="yHduHDPm0oGMUBSL0AVT-174" value="NÃO" style="rounded=1;whiteSpace=wrap;html=1;fillColor=#ffcccc;strokeColor=#36393d;" vertex="1" parent="1">
          <mxGeometry x="1130" y="1610" width="40" height="30" as="geometry" />
        </mxCell>
        <mxCell id="yHduHDPm0oGMUBSL0AVT-191" value="" style="edgeStyle=orthogonalEdgeStyle;rounded=0;orthogonalLoop=1;jettySize=auto;html=1;" edge="1" parent="1" source="yHduHDPm0oGMUBSL0AVT-188" target="yHduHDPm0oGMUBSL0AVT-190">
          <mxGeometry relative="1" as="geometry" />
        </mxCell>
        <mxCell id="yHduHDPm0oGMUBSL0AVT-195" value="" style="edgeStyle=orthogonalEdgeStyle;rounded=0;orthogonalLoop=1;jettySize=auto;html=1;" edge="1" parent="1" source="yHduHDPm0oGMUBSL0AVT-188" target="yHduHDPm0oGMUBSL0AVT-196">
          <mxGeometry relative="1" as="geometry">
            <mxPoint x="1280" y="1871" as="targetPoint" />
          </mxGeometry>
        </mxCell>
        <mxCell id="yHduHDPm0oGMUBSL0AVT-188" value="Removeu equipamento" style="rhombus;whiteSpace=wrap;html=1;fontSize=10;" vertex="1" parent="1">
          <mxGeometry x="1080" y="1831" width="80" height="80" as="geometry" />
        </mxCell>
        <mxCell id="yHduHDPm0oGMUBSL0AVT-247" style="edgeStyle=orthogonalEdgeStyle;rounded=0;orthogonalLoop=1;jettySize=auto;html=1;exitX=0.5;exitY=1;exitDx=0;exitDy=0;entryX=0.5;entryY=0;entryDx=0;entryDy=0;" edge="1" parent="1" source="yHduHDPm0oGMUBSL0AVT-190" target="yHduHDPm0oGMUBSL0AVT-232">
          <mxGeometry relative="1" as="geometry" />
        </mxCell>
        <mxCell id="yHduHDPm0oGMUBSL0AVT-190" value="" style="rhombus;whiteSpace=wrap;html=1;" vertex="1" parent="1">
          <mxGeometry x="1080" y="2040" width="80" height="80" as="geometry" />
        </mxCell>
        <mxCell id="yHduHDPm0oGMUBSL0AVT-204" value="" style="edgeStyle=orthogonalEdgeStyle;rounded=0;orthogonalLoop=1;jettySize=auto;html=1;" edge="1" parent="1" source="yHduHDPm0oGMUBSL0AVT-196" target="yHduHDPm0oGMUBSL0AVT-203">
          <mxGeometry relative="1" as="geometry" />
        </mxCell>
        <mxCell id="yHduHDPm0oGMUBSL0AVT-207" value="" style="edgeStyle=orthogonalEdgeStyle;rounded=0;orthogonalLoop=1;jettySize=auto;html=1;" edge="1" parent="1" source="yHduHDPm0oGMUBSL0AVT-196" target="yHduHDPm0oGMUBSL0AVT-206">
          <mxGeometry relative="1" as="geometry" />
        </mxCell>
        <mxCell id="yHduHDPm0oGMUBSL0AVT-196" value="Adicionou agora" style="rhombus;whiteSpace=wrap;html=1;" vertex="1" parent="1">
          <mxGeometry x="1240" y="1831" width="80" height="80" as="geometry" />
        </mxCell>
        <mxCell id="yHduHDPm0oGMUBSL0AVT-197" value="&lt;div&gt;SIM&lt;/div&gt;" style="rounded=1;whiteSpace=wrap;html=1;fillColor=#cdeb8b;strokeColor=#36393d;" vertex="1" parent="1">
          <mxGeometry x="1160" y="1831" width="40" height="30" as="geometry" />
        </mxCell>
        <mxCell id="yHduHDPm0oGMUBSL0AVT-198" value="NÃO" style="rounded=1;whiteSpace=wrap;html=1;fillColor=#ffcccc;strokeColor=#36393d;" vertex="1" parent="1">
          <mxGeometry x="1130" y="1911" width="40" height="30" as="geometry" />
        </mxCell>
        <mxCell id="yHduHDPm0oGMUBSL0AVT-199" value="NÃO" style="rounded=1;whiteSpace=wrap;html=1;fillColor=#ffcccc;strokeColor=#36393d;" vertex="1" parent="1">
          <mxGeometry x="1300" y="1911" width="40" height="30" as="geometry" />
        </mxCell>
        <mxCell id="yHduHDPm0oGMUBSL0AVT-200" value="&lt;div&gt;SIM&lt;/div&gt;" style="rounded=1;whiteSpace=wrap;html=1;fillColor=#cdeb8b;strokeColor=#36393d;" vertex="1" parent="1">
          <mxGeometry x="1320" y="1820" width="40" height="30" as="geometry" />
        </mxCell>
        <mxCell id="yHduHDPm0oGMUBSL0AVT-212" style="edgeStyle=orthogonalEdgeStyle;rounded=0;orthogonalLoop=1;jettySize=auto;html=1;exitX=0.5;exitY=1;exitDx=0;exitDy=0;entryX=1;entryY=0.5;entryDx=0;entryDy=0;" edge="1" parent="1" source="yHduHDPm0oGMUBSL0AVT-203" target="yHduHDPm0oGMUBSL0AVT-208">
          <mxGeometry relative="1" as="geometry" />
        </mxCell>
        <mxCell id="yHduHDPm0oGMUBSL0AVT-203" value="Remove da lista de adicionados" style="whiteSpace=wrap;html=1;" vertex="1" parent="1">
          <mxGeometry x="1380" y="1841" width="120" height="60" as="geometry" />
        </mxCell>
        <mxCell id="yHduHDPm0oGMUBSL0AVT-209" value="" style="edgeStyle=orthogonalEdgeStyle;rounded=0;orthogonalLoop=1;jettySize=auto;html=1;" edge="1" parent="1" source="yHduHDPm0oGMUBSL0AVT-206" target="yHduHDPm0oGMUBSL0AVT-208">
          <mxGeometry relative="1" as="geometry" />
        </mxCell>
        <mxCell id="yHduHDPm0oGMUBSL0AVT-206" value="Adiciona a lista de removidos" style="whiteSpace=wrap;html=1;" vertex="1" parent="1">
          <mxGeometry x="1220" y="1950" width="120" height="60" as="geometry" />
        </mxCell>
        <mxCell id="yHduHDPm0oGMUBSL0AVT-213" style="edgeStyle=orthogonalEdgeStyle;rounded=0;orthogonalLoop=1;jettySize=auto;html=1;exitX=0;exitY=0.5;exitDx=0;exitDy=0;entryX=1;entryY=0.5;entryDx=0;entryDy=0;" edge="1" parent="1" source="yHduHDPm0oGMUBSL0AVT-208" target="yHduHDPm0oGMUBSL0AVT-190">
          <mxGeometry relative="1" as="geometry" />
        </mxCell>
        <mxCell id="yHduHDPm0oGMUBSL0AVT-208" value="" style="rhombus;whiteSpace=wrap;html=1;" vertex="1" parent="1">
          <mxGeometry x="1241" y="2040" width="80" height="80" as="geometry" />
        </mxCell>
        <mxCell id="yHduHDPm0oGMUBSL0AVT-230" value="" style="edgeStyle=orthogonalEdgeStyle;rounded=0;orthogonalLoop=1;jettySize=auto;html=1;" edge="1" parent="1" source="yHduHDPm0oGMUBSL0AVT-232" target="yHduHDPm0oGMUBSL0AVT-233">
          <mxGeometry relative="1" as="geometry" />
        </mxCell>
        <mxCell id="yHduHDPm0oGMUBSL0AVT-231" value="" style="edgeStyle=orthogonalEdgeStyle;rounded=0;orthogonalLoop=1;jettySize=auto;html=1;" edge="1" parent="1" source="yHduHDPm0oGMUBSL0AVT-232" target="yHduHDPm0oGMUBSL0AVT-236">
          <mxGeometry relative="1" as="geometry">
            <mxPoint x="1280" y="2220" as="targetPoint" />
          </mxGeometry>
        </mxCell>
        <mxCell id="yHduHDPm0oGMUBSL0AVT-232" value="Removeu talentos" style="rhombus;whiteSpace=wrap;html=1;fontSize=12;" vertex="1" parent="1">
          <mxGeometry x="1080" y="2180" width="80" height="80" as="geometry" />
        </mxCell>
        <mxCell id="yHduHDPm0oGMUBSL0AVT-253" style="edgeStyle=orthogonalEdgeStyle;rounded=0;orthogonalLoop=1;jettySize=auto;html=1;exitX=0;exitY=0.5;exitDx=0;exitDy=0;entryX=1;entryY=0.5;entryDx=0;entryDy=0;" edge="1" parent="1" source="yHduHDPm0oGMUBSL0AVT-233" target="yHduHDPm0oGMUBSL0AVT-250">
          <mxGeometry relative="1" as="geometry" />
        </mxCell>
        <mxCell id="yHduHDPm0oGMUBSL0AVT-233" value="" style="rhombus;whiteSpace=wrap;html=1;" vertex="1" parent="1">
          <mxGeometry x="1080" y="2389" width="80" height="80" as="geometry" />
        </mxCell>
        <mxCell id="yHduHDPm0oGMUBSL0AVT-234" value="" style="edgeStyle=orthogonalEdgeStyle;rounded=0;orthogonalLoop=1;jettySize=auto;html=1;" edge="1" parent="1" source="yHduHDPm0oGMUBSL0AVT-236" target="yHduHDPm0oGMUBSL0AVT-241">
          <mxGeometry relative="1" as="geometry" />
        </mxCell>
        <mxCell id="yHduHDPm0oGMUBSL0AVT-235" value="" style="edgeStyle=orthogonalEdgeStyle;rounded=0;orthogonalLoop=1;jettySize=auto;html=1;" edge="1" parent="1" source="yHduHDPm0oGMUBSL0AVT-236" target="yHduHDPm0oGMUBSL0AVT-243">
          <mxGeometry relative="1" as="geometry" />
        </mxCell>
        <mxCell id="yHduHDPm0oGMUBSL0AVT-236" value="Adicionou agora" style="rhombus;whiteSpace=wrap;html=1;" vertex="1" parent="1">
          <mxGeometry x="1240" y="2180" width="80" height="80" as="geometry" />
        </mxCell>
        <mxCell id="yHduHDPm0oGMUBSL0AVT-237" value="&lt;div&gt;SIM&lt;/div&gt;" style="rounded=1;whiteSpace=wrap;html=1;fillColor=#cdeb8b;strokeColor=#36393d;" vertex="1" parent="1">
          <mxGeometry x="1160" y="2180" width="40" height="30" as="geometry" />
        </mxCell>
        <mxCell id="yHduHDPm0oGMUBSL0AVT-238" value="NÃO" style="rounded=1;whiteSpace=wrap;html=1;fillColor=#ffcccc;strokeColor=#36393d;" vertex="1" parent="1">
          <mxGeometry x="1130" y="2260" width="40" height="30" as="geometry" />
        </mxCell>
        <mxCell id="yHduHDPm0oGMUBSL0AVT-239" value="NÃO" style="rounded=1;whiteSpace=wrap;html=1;fillColor=#ffcccc;strokeColor=#36393d;" vertex="1" parent="1">
          <mxGeometry x="1300" y="2260" width="40" height="30" as="geometry" />
        </mxCell>
        <mxCell id="yHduHDPm0oGMUBSL0AVT-240" style="edgeStyle=orthogonalEdgeStyle;rounded=0;orthogonalLoop=1;jettySize=auto;html=1;exitX=0.5;exitY=1;exitDx=0;exitDy=0;entryX=1;entryY=0.5;entryDx=0;entryDy=0;" edge="1" parent="1" source="yHduHDPm0oGMUBSL0AVT-241" target="yHduHDPm0oGMUBSL0AVT-245">
          <mxGeometry relative="1" as="geometry" />
        </mxCell>
        <mxCell id="yHduHDPm0oGMUBSL0AVT-241" value="Remove da lista de adicionados" style="whiteSpace=wrap;html=1;" vertex="1" parent="1">
          <mxGeometry x="1380" y="2190" width="120" height="60" as="geometry" />
        </mxCell>
        <mxCell id="yHduHDPm0oGMUBSL0AVT-242" value="" style="edgeStyle=orthogonalEdgeStyle;rounded=0;orthogonalLoop=1;jettySize=auto;html=1;" edge="1" parent="1" source="yHduHDPm0oGMUBSL0AVT-243" target="yHduHDPm0oGMUBSL0AVT-245">
          <mxGeometry relative="1" as="geometry" />
        </mxCell>
        <mxCell id="yHduHDPm0oGMUBSL0AVT-243" value="Adiciona a lista de removidos" style="whiteSpace=wrap;html=1;" vertex="1" parent="1">
          <mxGeometry x="1220" y="2299" width="120" height="60" as="geometry" />
        </mxCell>
        <mxCell id="yHduHDPm0oGMUBSL0AVT-244" style="edgeStyle=orthogonalEdgeStyle;rounded=0;orthogonalLoop=1;jettySize=auto;html=1;exitX=0;exitY=0.5;exitDx=0;exitDy=0;entryX=1;entryY=0.5;entryDx=0;entryDy=0;" edge="1" parent="1" source="yHduHDPm0oGMUBSL0AVT-245" target="yHduHDPm0oGMUBSL0AVT-233">
          <mxGeometry relative="1" as="geometry" />
        </mxCell>
        <mxCell id="yHduHDPm0oGMUBSL0AVT-245" value="" style="rhombus;whiteSpace=wrap;html=1;" vertex="1" parent="1">
          <mxGeometry x="1241" y="2389" width="80" height="80" as="geometry" />
        </mxCell>
        <mxCell id="yHduHDPm0oGMUBSL0AVT-248" value="" style="edgeStyle=orthogonalEdgeStyle;rounded=0;orthogonalLoop=1;jettySize=auto;html=1;" edge="1" parent="1" source="yHduHDPm0oGMUBSL0AVT-250" target="yHduHDPm0oGMUBSL0AVT-251">
          <mxGeometry relative="1" as="geometry" />
        </mxCell>
        <mxCell id="yHduHDPm0oGMUBSL0AVT-249" value="" style="edgeStyle=orthogonalEdgeStyle;rounded=0;orthogonalLoop=1;jettySize=auto;html=1;" edge="1" parent="1" source="yHduHDPm0oGMUBSL0AVT-250" target="yHduHDPm0oGMUBSL0AVT-252">
          <mxGeometry relative="1" as="geometry" />
        </mxCell>
        <mxCell id="yHduHDPm0oGMUBSL0AVT-250" value="Salvar" style="rhombus;whiteSpace=wrap;html=1;" vertex="1" parent="1">
          <mxGeometry x="910" y="2389" width="80" height="80" as="geometry" />
        </mxCell>
        <mxCell id="yHduHDPm0oGMUBSL0AVT-251" value="Encerra edição" style="ellipse;whiteSpace=wrap;html=1;" vertex="1" parent="1">
          <mxGeometry x="910" y="2549" width="80" height="80" as="geometry" />
        </mxCell>
        <mxCell id="yHduHDPm0oGMUBSL0AVT-252" value="Envia JSON informando nivel e dados a serem adicionados" style="whiteSpace=wrap;html=1;" vertex="1" parent="1">
          <mxGeometry x="730" y="2399" width="120" height="60" as="geometry" />
        </mxCell>
        <mxCell id="yHduHDPm0oGMUBSL0AVT-256" value="" style="endArrow=none;html=1;rounded=0;entryX=0;entryY=0.5;entryDx=0;entryDy=0;endFill=0;startArrow=classicThin;startFill=1;exitX=1;exitY=0.5;exitDx=0;exitDy=0;" edge="1" parent="1" source="yHduHDPm0oGMUBSL0AVT-260" target="yHduHDPm0oGMUBSL0AVT-252">
          <mxGeometry relative="1" as="geometry">
            <mxPoint x="600" y="2429" as="sourcePoint" />
            <mxPoint x="700" y="2428.41" as="targetPoint" />
          </mxGeometry>
        </mxCell>
        <mxCell id="yHduHDPm0oGMUBSL0AVT-257" value="" style="shape=message;html=1;outlineConnect=0;" vertex="1" parent="yHduHDPm0oGMUBSL0AVT-256">
          <mxGeometry width="20" height="14" relative="1" as="geometry">
            <mxPoint x="-10" y="-7" as="offset" />
          </mxGeometry>
        </mxCell>
        <mxCell id="yHduHDPm0oGMUBSL0AVT-262" value="" style="edgeStyle=orthogonalEdgeStyle;rounded=0;orthogonalLoop=1;jettySize=auto;html=1;" edge="1" parent="1" source="yHduHDPm0oGMUBSL0AVT-260" target="yHduHDPm0oGMUBSL0AVT-261">
          <mxGeometry relative="1" as="geometry" />
        </mxCell>
        <mxCell id="yHduHDPm0oGMUBSL0AVT-264" value="" style="edgeStyle=orthogonalEdgeStyle;rounded=0;orthogonalLoop=1;jettySize=auto;html=1;" edge="1" parent="1" source="yHduHDPm0oGMUBSL0AVT-260" target="yHduHDPm0oGMUBSL0AVT-263">
          <mxGeometry relative="1" as="geometry" />
        </mxCell>
        <mxCell id="yHduHDPm0oGMUBSL0AVT-270" value="" style="edgeStyle=orthogonalEdgeStyle;rounded=0;orthogonalLoop=1;jettySize=auto;html=1;" edge="1" parent="1" source="yHduHDPm0oGMUBSL0AVT-260" target="yHduHDPm0oGMUBSL0AVT-267">
          <mxGeometry relative="1" as="geometry" />
        </mxCell>
        <mxCell id="yHduHDPm0oGMUBSL0AVT-260" value="Novo nivel" style="rhombus;whiteSpace=wrap;html=1;" vertex="1" parent="1">
          <mxGeometry x="520" y="2389" width="80" height="80" as="geometry" />
        </mxCell>
        <mxCell id="yHduHDPm0oGMUBSL0AVT-271" style="edgeStyle=orthogonalEdgeStyle;rounded=0;orthogonalLoop=1;jettySize=auto;html=1;exitX=0;exitY=0.5;exitDx=0;exitDy=0;entryX=0;entryY=0.5;entryDx=0;entryDy=0;" edge="1" parent="1" source="yHduHDPm0oGMUBSL0AVT-261" target="yHduHDPm0oGMUBSL0AVT-267">
          <mxGeometry relative="1" as="geometry">
            <mxPoint x="440" y="2560" as="targetPoint" />
            <Array as="points">
              <mxPoint x="440" y="2265" />
              <mxPoint x="440" y="2540" />
            </Array>
          </mxGeometry>
        </mxCell>
        <mxCell id="yHduHDPm0oGMUBSL0AVT-261" value="&lt;div&gt;Nova entrada na tabela de nível e copia talentos e equipamentos já existentes&lt;/div&gt;" style="whiteSpace=wrap;html=1;" vertex="1" parent="1">
          <mxGeometry x="470" y="2230" width="180" height="69" as="geometry" />
        </mxCell>
        <mxCell id="yHduHDPm0oGMUBSL0AVT-266" value="" style="edgeStyle=orthogonalEdgeStyle;rounded=0;orthogonalLoop=1;jettySize=auto;html=1;" edge="1" parent="1" source="yHduHDPm0oGMUBSL0AVT-263" target="yHduHDPm0oGMUBSL0AVT-265">
          <mxGeometry relative="1" as="geometry" />
        </mxCell>
        <mxCell id="yHduHDPm0oGMUBSL0AVT-263" value="Relaciona os talentos e equipamentos adicionados ao nivel" style="whiteSpace=wrap;html=1;" vertex="1" parent="1">
          <mxGeometry x="500" y="2610" width="120" height="60" as="geometry" />
        </mxCell>
        <mxCell id="yHduHDPm0oGMUBSL0AVT-273" value="" style="edgeStyle=orthogonalEdgeStyle;rounded=0;orthogonalLoop=1;jettySize=auto;html=1;" edge="1" parent="1" source="yHduHDPm0oGMUBSL0AVT-265" target="yHduHDPm0oGMUBSL0AVT-272">
          <mxGeometry relative="1" as="geometry" />
        </mxCell>
        <mxCell id="yHduHDPm0oGMUBSL0AVT-265" value="&lt;div&gt;Remove as relações dos talentos e equipamentos removidos do mivel&lt;/div&gt;" style="whiteSpace=wrap;html=1;" vertex="1" parent="1">
          <mxGeometry x="270" y="2610" width="160" height="60" as="geometry" />
        </mxCell>
        <mxCell id="yHduHDPm0oGMUBSL0AVT-267" value="" style="rhombus;whiteSpace=wrap;html=1;" vertex="1" parent="1">
          <mxGeometry x="520" y="2500" width="80" height="80" as="geometry" />
        </mxCell>
        <mxCell id="yHduHDPm0oGMUBSL0AVT-272" value="&lt;div&gt;Finaliza edição&lt;/div&gt;" style="ellipse;whiteSpace=wrap;html=1;" vertex="1" parent="1">
          <mxGeometry x="120" y="2600" width="80" height="80" as="geometry" />
        </mxCell>
      </root>
    </mxGraphModel>
  </diagram>
</mxfile>
